<?xml version="1.0" encoding="iso-8859-1"?>
<!-- Uploaded to: SVG Repo, www.svgrepo.com, Generator: SVG Repo Mixer Tools -->
<svg fill="#000000" height="800px" width="800px" version="1.1" id="Layer_1" xmlns="http://www.w3.org/2000/svg" xmlns:xlink="http://www.w3.org/1999/xlink" 
	 viewBox="0 0 506.027 506.027" xml:space="preserve">
<g transform="translate(1 1)">
	<g>
		<path d="M478.573,74.093L502.467,50.2c3.413-3.413,3.413-8.533,0-11.947L465.773,1.56c-3.413-3.413-8.533-3.413-11.947,0
			l-20.878,21.624c-1.395,0.378-2.728,1.129-3.869,2.27l-17.982,17.982c-3.365-2.587-7.91-2.33-11.032,0.792L73.24,369.347
			c-0.824,0.824-1.445,1.749-1.871,2.724L37.4,406.04c-1.707,1.707-2.56,3.413-2.56,5.973c0,2.135,0.602,3.674,1.789,5.117
			c-16.213,13.33-25.682,33.339-25.682,54.616v9.387L1.56,490.52c-3.413,3.413-3.413,8.533,0,11.947
			c1.707,1.707,3.413,2.56,5.973,2.56s4.267-0.853,5.973-2.56l9.387-9.387h9.387c21.148,0,41.667-9.977,54.645-25.659
			c1.434,1.171,2.968,1.766,5.088,1.766c2.56,0,4.267-0.853,5.973-3.413l34.341-34.341c0.664-0.392,1.194-0.889,1.499-1.499
			l277.76-277.76l6.827,6.827L285.72,291.693c-3.413,3.413-3.413,8.533,0,11.947l17.92,17.92c1.707,1.707,3.413,2.56,5.973,2.56
			c1.707,0,4.267-0.853,5.973-2.56l168.96-168.96c3.413-3.413,3.413-8.533,0-11.947l-17.92-17.92c-3.413-3.413-8.533-3.413-11.947,0
			l-24.32,24.32l-6.827-6.827L459.8,103.96c1.707-0.853,3.413-2.56,3.413-5.12s-0.853-4.267-2.56-5.973l-0.853-0.853l16.231-16.231
			C476.985,75.367,477.857,74.81,478.573,74.093z M459.8,140.653l5.973,5.973L308.76,303.64l-5.973-5.973L459.8,140.653z
			 M459.8,19.48l24.747,24.747l-12.8,11.947L447.853,32.28L459.8,19.48z M370.2,121.88l-217.6,217.6l-11.947-11.947l217.188-217.188
			L370.2,121.88z M32.28,476.013h-4.267v-4.267c0-17.067,7.68-32.427,20.48-42.667l26.453,26.453
			C64.707,468.333,48.493,476.013,32.28,476.013z M92.013,447.853l-35.84-35.84l23.893-23.893l35.84,35.84L92.013,447.853z
			 M127.853,412.013l-35.84-35.84l36.693-36.693l17.92,17.92c1.707,1.707,3.413,2.56,5.973,2.56c1.707,0,4.267-0.853,5.973-2.56
			L388.12,127.853c1.707-1.707,2.56-3.413,2.56-5.973s-0.853-4.267-2.56-5.973l-17.92-17.92l35.84-35.84l35.84,35.84
			L127.853,412.013z M435.053,43.373l11.422,11.422L459.8,68.12l-11.093,12.8L423.96,56.173L435.053,43.373z"/>
	</g>
</g>
</svg>